ply
format ascii 1.0    { ascii/binary, format version number }
comment A debossed H, as a nod to Heidelberg University and the cuniform script studied by the FCGL 
comment made by Bryan Wolfford
element vertex 22   { there are 22 "vertex" elements in this file }
property int x
property int y 
property int z
element face 36     { there are 36 "face" elements in this file }
property list uchar int32 vertex_indices { "vertex_indices" is a list of ints }
end_header
 0  0  0
 2  0  0
12  0  0
14  0  0
14 20  0
12 20  0
 2 20  0
 0 20  0
 1  1 -1
13  1 -1
13 19 -1
 1 19 -1
 2 10  0
12 10  0
12 12  0
 2 12  0
 1 11 -1
13 11 -1
-2 -2  0
16 -2  0
16 22  0
-2 22  0
 3  0  1  8
 3  1 16  8
 3  1 12 16
 3 12 13 16
 3 13 17 16
 3  9 17 13
 3  2  9 13
 3  2  3  9
 3  3 10  9
 3  3  4 10
 3  4  5 10
 3  5 17 10
 3  5 14 17
 3 14 15 17
 3 15 16 17
 3 11 16 15
 3  6 11 15
 3  6  7 11
 3  7  8 11
 3  0  8  7
 3  0 18  1
 3  1 18 19
 3  1 19  2
 3  2 19  3
 3  3 19  4
 3  4 19 20
 3  4 20  5
 3  5 20 21
 3  5 21  6
 3  6 21  7
 3  0  7 21
 3  0 21 18
 3  1  2 12
 3  2 13 12
 3  5  6 14
 3  6 15 14
